<svg width="11" height="10" viewBox="0 0 11 10" fill="none" xmlns="http://www.w3.org/2000/svg">
<g clip-path="url(#clip0_36_1028)">
<path d="M0.5 0.9375C0.5 0.85462 0.532924 0.775134 0.591529 0.716529C0.650134 0.657924 0.72962 0.625 0.8125 0.625H1.75C1.81971 0.625019 1.88741 0.648344 1.94233 0.691265C1.99726 0.734187 2.03626 0.79424 2.05312 0.861875L2.30625 1.875H9.5625C9.60839 1.87504 9.6537 1.88519 9.69522 1.90472C9.73674 1.92425 9.77345 1.95268 9.80275 1.988C9.83204 2.02332 9.85319 2.06466 9.86471 2.10907C9.87622 2.15349 9.87782 2.1999 9.86938 2.245L8.93188 7.245C8.91847 7.31661 8.88047 7.38129 8.82443 7.42785C8.7684 7.47441 8.69785 7.49993 8.625 7.5H3C2.92715 7.49993 2.8566 7.47441 2.80057 7.42785C2.74453 7.38129 2.70653 7.31661 2.69313 7.245L1.75625 2.25438L1.50625 1.25H0.8125C0.72962 1.25 0.650134 1.21708 0.591529 1.15847C0.532924 1.09987 0.5 1.02038 0.5 0.9375ZM2.43875 2.5L3.25938 6.875H8.36562L9.18625 2.5H2.43875ZM3.625 7.5C3.29348 7.5 2.97554 7.6317 2.74112 7.86612C2.5067 8.10054 2.375 8.41848 2.375 8.75C2.375 9.08152 2.5067 9.39946 2.74112 9.63388C2.97554 9.8683 3.29348 10 3.625 10C3.95652 10 4.27446 9.8683 4.50888 9.63388C4.7433 9.39946 4.875 9.08152 4.875 8.75C4.875 8.41848 4.7433 8.10054 4.50888 7.86612C4.27446 7.6317 3.95652 7.5 3.625 7.5ZM8 7.5C7.66848 7.5 7.35054 7.6317 7.11612 7.86612C6.8817 8.10054 6.75 8.41848 6.75 8.75C6.75 9.08152 6.8817 9.39946 7.11612 9.63388C7.35054 9.8683 7.66848 10 8 10C8.33152 10 8.64946 9.8683 8.88388 9.63388C9.1183 9.39946 9.25 9.08152 9.25 8.75C9.25 8.41848 9.1183 8.10054 8.88388 7.86612C8.64946 7.6317 8.33152 7.5 8 7.5ZM3.625 8.125C3.79076 8.125 3.94973 8.19085 4.06694 8.30806C4.18415 8.42527 4.25 8.58424 4.25 8.75C4.25 8.91576 4.18415 9.07473 4.06694 9.19194C3.94973 9.30915 3.79076 9.375 3.625 9.375C3.45924 9.375 3.30027 9.30915 3.18306 9.19194C3.06585 9.07473 3 8.91576 3 8.75C3 8.58424 3.06585 8.42527 3.18306 8.30806C3.30027 8.19085 3.45924 8.125 3.625 8.125ZM8 8.125C8.16576 8.125 8.32473 8.19085 8.44194 8.30806C8.55915 8.42527 8.625 8.58424 8.625 8.75C8.625 8.91576 8.55915 9.07473 8.44194 9.19194C8.32473 9.30915 8.16576 9.375 8 9.375C7.83424 9.375 7.67527 9.30915 7.55806 9.19194C7.44085 9.07473 7.375 8.91576 7.375 8.75C7.375 8.58424 7.44085 8.42527 7.55806 8.30806C7.67527 8.19085 7.83424 8.125 8 8.125Z" fill="#6F6F6F"/>
</g>
<defs>
<clipPath id="clip0_36_1028">
<rect width="10" height="10" fill="white" transform="translate(0.5)"/>
</clipPath>
</defs>
</svg>
